<svg width="40" height="50" viewBox="0 0 40 50" fill="none" xmlns="http://www.w3.org/2000/svg">
<path d="M20 25C21.375 25 22.5521 24.5104 23.5312 23.5312C24.5104 22.5521 25 21.375 25 20C25 18.625 24.5104 17.4479 23.5312 16.4688C22.5521 15.4896 21.375 15 20 15C18.625 15 17.4479 15.4896 16.4688 16.4688C15.4896 17.4479 15 18.625 15 20C15 21.375 15.4896 22.5521 16.4688 23.5312C17.4479 24.5104 18.625 25 20 25ZM20 50C13.2917 44.2917 8.28125 38.9896 4.96875 34.0938C1.65625 29.1979 0 24.6667 0 20.5C0 14.25 2.01042 9.27083 6.03125 5.5625C10.0521 1.85417 14.7083 0 20 0C25.2917 0 29.9479 1.85417 33.9688 5.5625C37.9896 9.27083 40 14.25 40 20.5C40 24.6667 38.3438 29.1979 35.0312 34.0938C31.7188 38.9896 26.7083 44.2917 20 50Z" fill="#610000"/>
</svg>
