<svg width="318" height="19" viewBox="0 0 318 19" fill="none" xmlns="http://www.w3.org/2000/svg">
<path d="M6.85 14.825L10 12.925L13.15 14.85L12.325 11.25L15.1 8.85L11.45 8.525L10 5.125L8.55 8.5L4.9 8.825L7.675 11.25L6.85 14.825ZM3.825 19L5.45 11.975L0 7.25L7.2 6.625L10 0L12.8 6.625L20 7.25L14.55 11.975L16.175 19L10 15.275L3.825 19Z" fill="#610000"/>
<path d="M26.85 14.825L30 12.925L33.15 14.85L32.325 11.25L35.1 8.85L31.45 8.525L30 5.125L28.55 8.5L24.9 8.825L27.675 11.25L26.85 14.825ZM23.825 19L25.45 11.975L20 7.25L27.2 6.625L30 0L32.8 6.625L40 7.25L34.55 11.975L36.175 19L30 15.275L23.825 19Z" fill="#610000"/>
<path d="M46.85 14.825L50 12.925L53.15 14.85L52.325 11.25L55.1 8.85L51.45 8.525L50 5.125L48.55 8.5L44.9 8.825L47.675 11.25L46.85 14.825ZM43.825 19L45.45 11.975L40 7.25L47.2 6.625L50 0L52.8 6.625L60 7.25L54.55 11.975L56.175 19L50 15.275L43.825 19Z" fill="#610000"/>
<path d="M66.85 14.825L70 12.925L73.15 14.85L72.325 11.25L75.1 8.85L71.45 8.525L70 5.125L68.55 8.5L64.9 8.825L67.675 11.25L66.85 14.825ZM63.825 19L65.45 11.975L60 7.25L67.2 6.625L70 0L72.8 6.625L80 7.25L74.55 11.975L76.175 19L70 15.275L63.825 19Z" fill="#610000"/>
<path d="M86.85 14.825L90 12.925L93.15 14.85L92.325 11.25L95.1 8.85L91.45 8.525L90 5.125L88.55 8.5L84.9 8.825L87.675 11.25L86.85 14.825ZM83.825 19L85.45 11.975L80 7.25L87.2 6.625L90 0L92.8 6.625L100 7.25L94.55 11.975L96.175 19L90 15.275L83.825 19Z" fill="#610000"/>
</svg>
