<svg width="44" height="32" viewBox="0 0 44 32" fill="none" xmlns="http://www.w3.org/2000/svg">
<path d="M26 11.8V8.4C27.1 7.93333 28.225 7.58333 29.375 7.35C30.525 7.11667 31.7333 7 33 7C33.8667 7 34.7167 7.06667 35.55 7.2C36.3833 7.33333 37.2 7.5 38 7.7V10.9C37.2 10.6 36.3917 10.375 35.575 10.225C34.7583 10.075 33.9 10 33 10C31.7333 10 30.5167 10.1583 29.35 10.475C28.1833 10.7917 27.0667 11.2333 26 11.8ZM26 22.8V19.4C27.1 18.9333 28.225 18.5833 29.375 18.35C30.525 18.1167 31.7333 18 33 18C33.8667 18 34.7167 18.0667 35.55 18.2C36.3833 18.3333 37.2 18.5 38 18.7V21.9C37.2 21.6 36.3917 21.375 35.575 21.225C34.7583 21.075 33.9 21 33 21C31.7333 21 30.5167 21.15 29.35 21.45C28.1833 21.75 27.0667 22.2 26 22.8ZM26 17.3V13.9C27.1 13.4333 28.225 13.0833 29.375 12.85C30.525 12.6167 31.7333 12.5 33 12.5C33.8667 12.5 34.7167 12.5667 35.55 12.7C36.3833 12.8333 37.2 13 38 13.2V16.4C37.2 16.1 36.3917 15.875 35.575 15.725C34.7583 15.575 33.9 15.5 33 15.5C31.7333 15.5 30.5167 15.6583 29.35 15.975C28.1833 16.2917 27.0667 16.7333 26 17.3ZM11 24C12.5667 24 14.0917 24.175 15.575 24.525C17.0583 24.875 18.5333 25.4 20 26.1V6.4C18.6333 5.6 17.1833 5 15.65 4.6C14.1167 4.2 12.5667 4 11 4C9.8 4 8.60833 4.11667 7.425 4.35C6.24167 4.58333 5.1 4.93333 4 5.4V25.2C5.16667 24.8 6.325 24.5 7.475 24.3C8.625 24.1 9.8 24 11 24ZM24 26.1C25.4667 25.4 26.9417 24.875 28.425 24.525C29.9083 24.175 31.4333 24 33 24C34.2 24 35.375 24.1 36.525 24.3C37.675 24.5 38.8333 24.8 40 25.2V5.4C38.9 4.93333 37.7583 4.58333 36.575 4.35C35.3917 4.11667 34.2 4 33 4C31.4333 4 29.8833 4.2 28.35 4.6C26.8167 5 25.3667 5.6 24 6.4V26.1ZM22 32C20.4 30.7333 18.6667 29.75 16.8 29.05C14.9333 28.35 13 28 11 28C9.6 28 8.225 28.1833 6.875 28.55C5.525 28.9167 4.23333 29.4333 3 30.1C2.3 30.4667 1.625 30.45 0.975 30.05C0.325 29.65 0 29.0667 0 28.3V4.2C0 3.83333 0.0916667 3.48333 0.275 3.15C0.458333 2.81667 0.733333 2.56667 1.1 2.4C2.63333 1.6 4.23333 1 5.9 0.6C7.56667 0.2 9.26667 0 11 0C12.9333 0 14.825 0.25 16.675 0.75C18.525 1.25 20.3 2 22 3C23.7 2 25.475 1.25 27.325 0.75C29.175 0.25 31.0667 0 33 0C34.7333 0 36.4333 0.2 38.1 0.6C39.7667 1 41.3667 1.6 42.9 2.4C43.2667 2.56667 43.5417 2.81667 43.725 3.15C43.9083 3.48333 44 3.83333 44 4.2V28.3C44 29.0667 43.675 29.65 43.025 30.05C42.375 30.45 41.7 30.4667 41 30.1C39.7667 29.4333 38.475 28.9167 37.125 28.55C35.775 28.1833 34.4 28 33 28C31 28 29.0667 28.35 27.2 29.05C25.3333 29.75 23.6 30.7333 22 32Z" fill="#8B0000"/>
</svg>
